<svg width="40" height="40" viewBox="0 0 40 40" fill="none" xmlns="http://www.w3.org/2000/svg">
<path fill-rule="evenodd" clip-rule="evenodd" d="M5 20C5 18.159 6.49238 16.6667 8.33333 16.6667C10.1743 16.6667 11.6667 18.159 11.6667 20C11.6667 21.841 10.1743 23.3334 8.33333 23.3334C6.49238 23.3334 5 21.841 5 20ZM16.6667 20C16.6667 18.159 18.159 16.6667 20 16.6667C21.841 16.6667 23.3333 18.159 23.3333 20C23.3333 21.841 21.841 23.3334 20 23.3334C18.159 23.3334 16.6667 21.841 16.6667 20ZM28.3333 20C28.3333 18.159 29.8257 16.6667 31.6667 16.6667C33.5077 16.6667 35 18.159 35 20C35 21.841 33.5077 23.3334 31.6667 23.3334C29.8257 23.3334 28.3333 21.841 28.3333 20Z" fill="black"/>
</svg>
