<svg width="200" height="200" viewBox="0 0 200 200" fill="none" xmlns="http://www.w3.org/2000/svg">
<path d="M48.7501 142.5C55.8334 137.083 63.7501 132.812 72.5001 129.687C81.2501 126.562 90.4167 125 100 125C109.583 125 118.75 126.562 127.5 129.687C136.25 132.812 144.167 137.083 151.25 142.5C156.111 136.806 159.896 130.347 162.604 123.125C165.313 115.903 166.667 108.194 166.667 100C166.667 81.5277 160.174 65.7986 147.188 52.8125C134.201 39.8263 118.472 33.3333 100 33.3333C81.5279 33.3333 65.7987 39.8263 52.8126 52.8125C39.8265 65.7986 33.3334 81.5277 33.3334 100C33.3334 108.194 34.6876 115.903 37.3959 123.125C40.1042 130.347 43.889 136.806 48.7501 142.5ZM100 108.333C91.8056 108.333 84.8959 105.521 79.2709 99.8958C73.6459 94.2708 70.8334 87.3611 70.8334 79.1666C70.8334 70.9722 73.6459 64.0625 79.2709 58.4375C84.8959 52.8125 91.8056 50 100 50C108.195 50 115.104 52.8125 120.729 58.4375C126.354 64.0625 129.167 70.9722 129.167 79.1666C129.167 87.3611 126.354 94.2708 120.729 99.8958C115.104 105.521 108.195 108.333 100 108.333ZM100 183.333C88.4723 183.333 77.639 181.146 67.5001 176.771C57.3612 172.396 48.5417 166.458 41.0417 158.958C33.5417 151.458 27.6042 142.639 23.2292 132.5C18.8542 122.361 16.6667 111.528 16.6667 100C16.6667 88.4722 18.8542 77.6388 23.2292 67.5C27.6042 57.3611 33.5417 48.5416 41.0417 41.0416C48.5417 33.5416 57.3612 27.6041 67.5001 23.2291C77.639 18.8541 88.4723 16.6666 100 16.6666C111.528 16.6666 122.361 18.8541 132.5 23.2291C142.639 27.6041 151.458 33.5416 158.958 41.0416C166.458 48.5416 172.396 57.3611 176.771 67.5C181.146 77.6388 183.333 88.4722 183.333 100C183.333 111.528 181.146 122.361 176.771 132.5C172.396 142.639 166.458 151.458 158.958 158.958C151.458 166.458 142.639 172.396 132.5 176.771C122.361 181.146 111.528 183.333 100 183.333Z" fill="#E6E0E9"/>
</svg>
