<svg width="28" height="28" viewBox="0 0 28 28" fill="none" xmlns="http://www.w3.org/2000/svg">
<path d="M10.75 5C9.7835 5 9 5.7835 9 6.75V21.9167C9 22.8831 9.7835 23.6667 10.75 23.6667C11.7165 23.6667 12.5 22.8831 12.5 21.9167V6.75C12.5 5.7835 11.7165 5 10.75 5Z" fill="black"/>
<path d="M15.1667 9.91669C15.1667 8.95019 15.9503 8.16669 16.9167 8.16669C17.8832 8.16669 18.6667 8.95019 18.6667 9.91669V18.0834C18.6667 19.0498 17.8832 19.8334 16.9167 19.8334C15.9503 19.8334 15.1667 19.0498 15.1667 18.0834V9.91669Z" fill="black"/>
<path d="M5.25 10.5C4.2835 10.5 3.5 11.2835 3.5 12.25V15.75C3.5 16.7165 4.2835 17.5 5.25 17.5C6.2165 17.5 7 16.7165 7 15.75V12.25C7 11.2835 6.2165 10.5 5.25 10.5Z" fill="black"/>
<path d="M22.75 10.5C21.7835 10.5 21 11.2835 21 12.25V15.75C21 16.7165 21.7835 17.5 22.75 17.5C23.7165 17.5 24.5 16.7165 24.5 15.75V12.25C24.5 11.2835 23.7165 10.5 22.75 10.5Z" fill="black"/>
</svg>
